PathFileType	4	(X/Y/Z)	T1_P1_NoVision_Movement_3_0-681.trc
DataRate	CameraRate	NumFrames	NumMarkers	Units	OrigDataRate	OrigDataStartFrame	OrigNumFrames
60	60	7	27	m	60	510	681
Frame#	Time	RHip			RKnee			RAnkle			RBigToe			RSmallToe			RHeel			LHip			LKnee			LAnkle			LBigToe			LSmallToe			LHeel			Neck			Head			Nose			RShoulder			RElbow			RWrist			RThumb			RIndex			RPinky			LShoulder			LElbow			LWrist			LThumb			LIndex			LPinky		
		X1	Y1	Z1	X2	Y2	Z2	X3	Y3	Z3	X4	Y4	Z4	X5	Y5	Z5	X6	Y6	Z6	X7	Y7	Z7	X8	Y8	Z8	X9	Y9	Z9	X10	Y10	Z10	X11	Y11	Z11	X12	Y12	Z12	X13	Y13	Z13	X14	Y14	Z14	X15	Y15	Z15	X16	Y16	Z16	X17	Y17	Z17	X18	Y18	Z18	X19	Y19	Z19	X20	Y20	Z20	X21	Y21	Z21	X22	Y22	Z22	X23	Y23	Z23	X24	Y24	Z24	X25	Y25	Z25	X26	Y26	Z26	X27	Y27	Z27
511	8.516666666666667	-82.0832696096531	3851.6828512200464	-589.9414946698296	263.5617741806707	4038.1623852878333	-576.5108841734071	624.6999581992616	4148.170652911034	-524.0168734354614	696.3708677865076	4095.286298317051	-476.97402674926525	695.7268881073205	4067.497071388271	-534.2718947254211	656.0910403540856	4193.527326690673	-532.0096158859938	-116.14710508242983	3982.1096914120044	-427.59427059564325	220.32394958248824	4032.5754685809225	-376.4833718530539	577.7533018491546	4195.380970124186	-383.4060301349566	680.8868282263014	4192.24574907312	-351.2848945762421	651.0607574495841	4254.733529714295	-340.39501108844405	610.7796694455897	4257.629367278923	-425.05576122425396	-684.7256827331391	3752.7194838391233	-533.8672546706068	-921.7575989221959	3558.399190777732	-457.5938290716041	-784.2689679604978	3587.775607875115	-436.60880971215045	-577.6240580330344	3712.386523763034	-676.0896271081333	-317.0074919157965	3626.6635297249677	-677.3462301650429	-464.31780425170825	3496.473171655339	-522.4471187140296	-560.4322867755849	3448.738649904589	-426.0878910576763	-557.0372427558976	3429.1399950223854	-404.70654675920366	-532.362531188301	3430.2318034181567	-417.57325484724754	-637.4258756709506	3888.1715943416875	-427.3210654861536	-398.57641308712107	4004.4607885425407	-361.48102455410884	-142.4658172735784	4024.54564356959	-293.15967808024624	-13.863022265601488	4041.8415944980297	-316.4978219578762	7.662082268638713	4043.7768049061424	-266.5583777787257	-3.9593621144561295	4044.209231392035	-248.11168708495657
512	8.533333333333333	-82.55389486769248	3880.1476921496496	-597.0447522225124	267.0636879365898	4020.0475014618655	-560.09104257681	624.7268101682971	4148.810721832201	-524.1583023806432	690.3308005629173	4092.1496267401108	-477.615929129714	695.6805819282011	4068.2166121991386	-534.4903178732578	656.0776065662657	4194.153398824863	-532.112351378771	-116.69628969663192	3962.1465602252847	-413.0766620895355	221.28148425273645	4033.5049272829424	-382.12115390020807	578.765576902982	4199.143411925952	-383.21194879149334	675.0654526354134	4188.841062195738	-351.90734416144335	643.9929291981305	4250.029074001883	-338.2973171955186	610.7452565911657	4258.143879318671	-425.23209214724534	-694.7965557211983	3751.0874900050508	-534.6429239271868	-921.7444400850134	3558.3417755233277	-457.38179699803226	-784.2305185604104	3587.7037785677517	-436.52959789850456	-577.9021738852987	3713.2596715589225	-676.6152327112186	-319.39824442236954	3598.1830268209987	-668.4880005177745	-453.3710533885549	3527.327780267678	-524.4388397974899	-556.0726797940061	3472.874090943225	-412.07596623492464	-550.5606530080415	3434.1011005600617	-387.6895234814404	-524.4772729251924	3457.242560735016	-412.69669310121066	-637.6005326417246	3889.527396979166	-428.0140662654137	-397.57327138496066	3985.083852041343	-348.06213905945367	-142.21608410872668	4024.8481951964577	-293.26754633744605	-8.031704731299781	4044.660326529054	-316.1052593948818	12.383559174498403	4048.138514605735	-268.5411615328497	-3.794831075204165	4044.217649315647	-248.28883125160084
513	8.55	-82.44699713157566	3880.4109424492335	-596.9755126695119	266.14670844330146	4018.984270864882	-553.4790725703355	631.0525018219212	4150.778509873335	-523.1928815293646	703.4645442391366	4100.516447955623	-479.2501561916072	707.6585851522009	4070.6388163423703	-532.9639491660485	651.3811646059296	4161.449553042956	-524.677725094749	-111.57699563988703	3965.822958028038	-414.675779887241	220.40770037507028	4032.373806706696	-376.08282469120667	577.6918485692627	4195.085010393223	-383.18530385168674	685.8993799889943	4190.922739665579	-350.243133620117	645.8709798286634	4230.185184470051	-324.95119255670215	610.504251115425	4257.228135056529	-424.92601920807766	-695.0989318822664	3751.2422900567212	-534.454019991279	-921.8052557000439	3558.589537071554	-457.5596642383649	-788.9059576109931	3586.586877898712	-436.71905567333437	-583.4550432346701	3712.0414174359566	-671.164948526755	-314.1238543555158	3598.6754577577967	-667.8302584706477	-448.25593127550235	3528.8974074170833	-523.9526801601749	-555.4835695475256	3472.876363258258	-406.1134280208887	-546.0177646452055	3436.308118773718	-382.8247929742781	-489.56362917886605	3467.7254426336103	-401.1916790968654	-637.4580303262869	3890.137687300903	-433.801241072135	-398.5268560250391	4004.131252406091	-361.5851231060573	-142.48817906492835	4024.6635644657904	-293.50147261632503	-8.346985766866107	4012.3354213986563	-303.51078575834663	17.950210565279182	4021.449192066072	-262.15483771377166	-3.611373716083581	4044.4605902037943	-248.5175541461292
514	8.566666666666666	-81.71517150179248	3852.167363800852	-589.6089607280759	267.14354388589345	4019.858865374553	-559.822849497988	624.74765942399	4147.885433631572	-523.8297519118261	696.4732141956804	4095.313784921165	-476.76957642926146	694.288320545683	4063.0610977558495	-531.27900431017	656.1421114982128	4193.111468533471	-531.7683607143429	-110.29972872943198	3967.3042098365727	-414.1643828632385	220.2963380536887	4032.7515731278554	-376.2900686890654	584.1167618409373	4198.369204602219	-382.37397263727416	678.329390404912	4185.807426919769	-348.11366722053305	643.818178738117	4249.145162797481	-337.93472234786765	610.6019081318391	4257.459658558536	-424.9073417564352	-694.739561527963	3750.085394716258	-534.0796785704606	-921.0551500541789	3557.252952416089	-451.77607923964274	-784.1346835289341	3587.2120029344496	-436.14852902951714	-583.0712796299081	3710.614233393915	-670.5181084901252	-309.34827986917685	3601.6078180312907	-669.621961046082	-424.32078869064435	3488.6191728571957	-511.6789743707917	-501.5922630976333	3448.551407951301	-381.3930490244962	-482.34335983690687	3435.5204143772694	-366.42982805444416	-435.1965318557836	3472.3614937467332	-390.576773138202	-637.4880227527453	3889.934420610072	-433.55629473346875	-397.6900105765345	3984.6900875749234	-348.3082816186431	-147.82431841324407	4024.317796159257	-293.94324026883237	-7.823160688430825	4044.1314432699246	-315.72231693141623	12.359224406317553	4047.483633174804	-268.03721673813584	-6.726967153097222	4060.5240443342896	-259.41267586790013
515	8.583333333333334	-82.09963595421961	3880.222409018836	-596.5561969117513	266.18525736408895	4018.3365299358084	-553.1663503664348	624.8348781138923	4148.5614031064315	-524.061728177542	703.1789334998882	4100.18977301909	-479.46595508290557	701.1079865281077	4089.8638910873083	-550.1323872858895	656.1859624343471	4193.838515697911	-531.9655873460658	-116.24580237747848	3991.241316876383	-417.9935134868178	220.4448033604908	4032.807778851751	-376.32443141705005	577.3392948890007	4194.824145224219	-383.1471880263295	680.081730373885	4187.913993577882	-351.1088124698863	637.9236607222451	4246.756109074746	-338.99121065502817	610.2049633858248	4257.173788348743	-424.8507920939656	-694.430109521339	3749.0901314281446	-533.6208613531476	-916.8078048685051	3560.037574094653	-452.55583761526	-779.6483716988696	3588.5267157165626	-436.11786490997997	-582.564183727608	3710.189926577415	-675.8696858527258	-307.3050880677729	3577.2448174828974	-663.1036232856802	-407.25740922989866	3499.1327797229396	-508.16000437834543	-471.15863410692265	3481.2315516571816	-380.60433454324294	-451.8811663533239	3433.394836279617	-352.56524240223973	-417.79852476635074	3484.171246472302	-387.0901107777847	-637.4705363561707	3888.854740469079	-433.0160978810833	-403.7961761500852	4000.6960315717447	-360.7139302417134	-148.23722284397758	4024.455651815101	-294.1336328938377	-2.551389106654526	4014.647519021031	-310.27010569712894	18.315542209428415	4020.9738147346684	-262.15540884522073	-6.589940256352195	4060.0011510312247	-259.20186954556743
516	8.6	-81.74189027518149	3851.7366925355286	-589.2998263733474	265.68647154004367	4017.2694151345067	-552.4051537494198	624.7304144183076	4148.350695038569	-524.0404805610532	696.6108282806794	4095.885330756575	-477.1153205681698	695.9091840979423	4068.343498038019	-534.5327295376718	656.1433127814327	4193.744997890689	-532.0534352232207	-123.03563611338524	3938.516193221696	-391.71496141261383	225.1877051135975	4032.277422822886	-375.57022390341723	577.53412271581	4195.124527789475	-383.18781634939074	685.8898776468235	4191.036748481238	-350.1941939914931	638.9143874657913	4225.969777107388	-322.9515343110694	616.2408586058152	4257.170968927561	-424.4104969212689	-694.3987016089314	3748.914514022922	-533.487785684817	-916.6911816129137	3559.9817561240106	-452.4596485454538	-781.1117433660705	3571.0258528752647	-423.70143103732613	-576.7815911432581	3711.1835112442855	-675.0620072578711	-308.21338600040315	3594.7082049350142	-677.8311997939362	-390.2931450230432	3478.2620926370905	-500.3593048588661	-445.4115210993778	3458.8423322282065	-356.4388309448423	-431.66413278296613	3409.9661049511583	-328.6692575403961	-396.67078685141837	3486.200168033903	-377.48143052233974	-634.8976713805527	3868.091276818488	-417.98026871330484	-403.89599226758753	4000.747988061871	-360.7348182341837	-148.13926265242407	4024.5967390399364	-294.1040836297386	-2.402363809642023	4047.7564321062387	-317.53813299565326	18.142966218160883	4051.288792990488	-269.64749446023757	-2.784133230461282	4063.7016634149018	-260.8207343247297
517	8.616666666666667	-81.85490566182304	3851.1165924707343	-589.0850641913253	261.8889047988953	3994.822941067485	-530.1298338044533	624.9354006925382	4148.750847475991	-524.1180230688174	697.3823539235968	4097.194131580035	-479.86714339358406	706.3324097358384	4099.3865289597325	-540.9864123653083	656.4389100546257	4194.400706869344	-532.2753269072589	-127.41741179152814	3937.2785642626195	-396.82226171680753	225.0315359125729	4032.0409784624717	-375.4457979886137	571.3143927636595	4190.71965494255	-381.27527517664066	667.5698857165423	4184.022896571741	-349.745559748492	637.7367848344394	4246.720800069309	-339.02275106749767	604.9187643988195	4253.219983389823	-422.9632171641521	-694.6167424968206	3747.606497550154	-527.0722454360615	-916.7652846336122	3560.3162253511587	-452.5910196102878	-785.9229144876937	3570.0253030292556	-423.70150097010264	-574.5839149395663	3693.3056929073628	-660.1415528174738	-314.63931288077083	3617.900399380819	-691.4880110494772	-374.2934160139738	3538.7536280997765	-506.1632640018625	-429.3681267133891	3474.643016284993	-350.90528579325223	-413.00764082903476	3401.013592401373	-316.5633553239627	-349.3189658784021	3465.7139918538346	-352.471520648345	-634.6166891289419	3868.424121530946	-417.6329436455617	-401.0170058768349	4033.6149799392765	-373.3419208504461	-142.71063547673842	4028.599293005001	-295.685652612691	7.2539406640415915	4035.4756731929087	-307.1532244400317	17.867186570312334	4031.235335205634	-256.4865239345096	-2.843316273133382	4064.151247958655	-261.2334072088645
